<svg xmlns="http://www.w3.org/2000/svg" xmlns:xlink="http://www.w3.org/1999/xlink" version="1.2" baseProfile="tiny" x="0px" y="0px" viewBox="0 0 100 125" xml:space="preserve"><rect x="47.5" y="20" width="5" height="5"/><rect x="68.713" y="28.787" transform="matrix(0.7071 -0.7071 0.7071 0.7071 -1.2653 59.519)" width="5" height="4.999"/><path d="M50,67.5c-4.136,0-7.5,3.364-7.5,7.5s3.364,7.5,7.5,7.5s7.5-3.364,7.5-7.5S54.136,67.5,50,67.5z M50,77.5  c-1.378,0-2.5-1.122-2.5-2.5s1.122-2.5,2.5-2.5s2.5,1.122,2.5,2.5S51.378,77.5,50,77.5z"/><path d="M25,67.5c-4.136,0-7.5,3.364-7.5,7.5s3.364,7.5,7.5,7.5s7.5-3.364,7.5-7.5S29.136,67.5,25,67.5z M25,77.5  c-1.378,0-2.5-1.122-2.5-2.5s1.122-2.5,2.5-2.5s2.5,1.122,2.5,2.5S26.378,77.5,25,77.5z"/><path d="M75,82.5c4.136,0,7.5-3.364,7.5-7.5s-3.364-7.5-7.5-7.5s-7.5,3.364-7.5,7.5S70.864,82.5,75,82.5z M75,72.5  c1.378,0,2.5,1.122,2.5,2.5s-1.122,2.5-2.5,2.5s-2.5-1.122-2.5-2.5S73.622,72.5,75,72.5z"/><rect x="75.216" y="38.52" transform="matrix(-0.3826 -0.9239 0.9239 -0.3826 69.5563 128.5172)" width="5" height="5"/><rect x="19.784" y="38.52" transform="matrix(-0.9239 -0.3826 0.3826 -0.9239 27.1756 87.444)" width="5" height="5"/><rect x="58.981" y="22.284" transform="matrix(-0.9239 -0.3826 0.3826 -0.9239 108.7986 71.2064)" width="5" height="5"/><rect x="36.02" y="22.284" transform="matrix(-0.3826 -0.9239 0.9239 -0.3826 30.3613 69.8551)" width="5" height="5"/><path d="M83.75,5h-67.5C10.047,5,5,10.047,5,16.25v67.5C5,89.953,10.047,95,16.25,95h67.5C89.953,95,95,89.953,95,83.75v-67.5  C95,10.047,89.953,5,83.75,5z M87.5,83.75c0,2.068-1.682,3.75-3.75,3.75h-67.5c-2.068,0-3.75-1.682-3.75-3.75V55h30v-2.5  c0-4.136,3.364-7.5,7.5-7.5s7.5,3.364,7.5,7.5V55h30V83.75z M87.5,50H62.249C61.087,44.302,56.037,40,50,40  c-2.544,0-4.907,0.771-6.884,2.081l-14.33-14.33l-3.535,3.535l14.331,14.331c-0.869,1.311-1.507,2.789-1.832,4.382H12.5V16.25  c0-2.068,1.682-3.75,3.75-3.75h67.5c2.068,0,3.75,1.682,3.75,3.75V50z"/><rect x="47.5" y="50" width="5" height="5"/><text x="0" y="115" fill="#000000" font-size="5px" font-weight="bold" font-family="'Helvetica Neue', Helvetica, Arial-Unicode, Arial, Sans-serif">Created by Arthur Shlain</text><text x="0" y="120" fill="#000000" font-size="5px" font-weight="bold" font-family="'Helvetica Neue', Helvetica, Arial-Unicode, Arial, Sans-serif">from the Noun Project</text></svg>